<mxfile host="65bd71144e">
    <diagram id="hE41_IYMnIatQemyidCq" name="/">
        <mxGraphModel dx="643" dy="506" grid="1" gridSize="10" guides="1" tooltips="1" connect="1" arrows="1" fold="1" page="1" pageScale="1" pageWidth="850" pageHeight="1100" math="0" shadow="0">
            <root>
                <mxCell id="0"/>
                <mxCell id="1" parent="0"/>
                <mxCell id="ienklhMR0YgJLpnpbfQ4-1" value="Diagram.dwario" style="rounded=1;whiteSpace=wrap;html=1;fontSize=15;" parent="1" vertex="1">
                    <mxGeometry x="40" y="50" width="120" height="60" as="geometry"/>
                </mxCell>
                <mxCell id="ienklhMR0YgJLpnpbfQ4-2" value="README.md" style="rounded=1;whiteSpace=wrap;html=1;fontSize=15;" parent="1" vertex="1">
                    <mxGeometry x="40" y="140" width="120" height="60" as="geometry"/>
                </mxCell>
                <mxCell id="ienklhMR0YgJLpnpbfQ4-3" value="Sources (/Sources)" style="swimlane;whiteSpace=wrap;html=1;" parent="1" vertex="1">
                    <mxGeometry x="180" y="50" width="200" height="120" as="geometry"/>
                </mxCell>
                <mxCell id="ienklhMR0YgJLpnpbfQ4-4" value="Avatar.jpg" style="rounded=1;whiteSpace=wrap;html=1;" parent="ienklhMR0YgJLpnpbfQ4-3" vertex="1">
                    <mxGeometry x="10" y="40" width="180" height="60" as="geometry"/>
                </mxCell>
            </root>
        </mxGraphModel>
    </diagram>
    <diagram id="izRFIzTOFPVm-dU4p413" name="/Code">
        <mxGraphModel dx="772" dy="607" grid="1" gridSize="10" guides="1" tooltips="1" connect="1" arrows="1" fold="1" page="1" pageScale="1" pageWidth="850" pageHeight="1100" math="0" shadow="0">
            <root>
                <mxCell id="0"/>
                <mxCell id="1" parent="0"/>
                <mxCell id="7" value="Bot.py" style="rounded=1;whiteSpace=wrap;html=1;fontSize=19;" parent="1" vertex="1">
                    <mxGeometry x="30" y="20" width="120" height="60" as="geometry"/>
                </mxCell>
                <mxCell id="11" value="bot_logs.log" style="shape=hexagon;perimeter=hexagonPerimeter2;whiteSpace=wrap;html=1;fixedSize=1;fontSize=19;rounded=1;" parent="1" vertex="1">
                    <mxGeometry x="30" y="150" width="120" height="80" as="geometry"/>
                </mxCell>
                <mxCell id="18" value="cogs (/cogs)" style="swimlane;whiteSpace=wrap;html=1;" parent="1" vertex="1">
                    <mxGeometry x="350" y="60" width="470" height="410" as="geometry"/>
                </mxCell>
                <mxCell id="21" value="Commands (/commands)" style="swimlane;horizontal=0;whiteSpace=wrap;html=1;" parent="18" vertex="1">
                    <mxGeometry x="10" y="30" width="320" height="370" as="geometry"/>
                </mxCell>
                <mxCell id="22" value="fun.py" style="rounded=1;whiteSpace=wrap;html=1;" parent="21" vertex="1">
                    <mxGeometry x="30" y="10" width="120" height="60" as="geometry"/>
                </mxCell>
                <mxCell id="23" value="misc.py" style="rounded=1;whiteSpace=wrap;html=1;" parent="21" vertex="1">
                    <mxGeometry x="30" y="90" width="120" height="60" as="geometry"/>
                </mxCell>
                <mxCell id="24" value="owner.py" style="rounded=1;whiteSpace=wrap;html=1;" parent="21" vertex="1">
                    <mxGeometry x="30" y="170" width="120" height="60" as="geometry"/>
                </mxCell>
                <mxCell id="25" value="roblox.py" style="rounded=1;whiteSpace=wrap;html=1;" parent="21" vertex="1">
                    <mxGeometry x="30" y="250" width="120" height="60" as="geometry"/>
                </mxCell>
                <mxCell id="27" value="project.py" style="rounded=1;whiteSpace=wrap;html=1;" parent="21" vertex="1">
                    <mxGeometry x="170" y="170" width="120" height="60" as="geometry"/>
                </mxCell>
                <mxCell id="28" value="moderation.py" style="rounded=1;whiteSpace=wrap;html=1;" parent="21" vertex="1">
                    <mxGeometry x="170" y="90" width="120" height="60" as="geometry"/>
                </mxCell>
                <mxCell id="29" value="main_commands.py" style="rounded=1;whiteSpace=wrap;html=1;" parent="21" vertex="1">
                    <mxGeometry x="170" y="10" width="120" height="60" as="geometry"/>
                </mxCell>
                <mxCell id="20" value="" style="endArrow=classic;html=1;exitX=0.5;exitY=1;exitDx=0;exitDy=0;entryX=0.5;entryY=0;entryDx=0;entryDy=0;" parent="1" source="7" target="11" edge="1">
                    <mxGeometry width="50" height="50" relative="1" as="geometry">
                        <mxPoint x="340" y="180" as="sourcePoint"/>
                        <mxPoint x="390" y="130" as="targetPoint"/>
                    </mxGeometry>
                </mxCell>
                <mxCell id="30" value="" style="endArrow=classic;startArrow=classic;html=1;exitX=-0.007;exitY=0.031;exitDx=0;exitDy=0;entryX=1;entryY=0.75;entryDx=0;entryDy=0;exitPerimeter=0;" parent="1" source="18" target="7" edge="1">
                    <mxGeometry width="50" height="50" relative="1" as="geometry">
                        <mxPoint x="530" y="180" as="sourcePoint"/>
                        <mxPoint x="280" y="120" as="targetPoint"/>
                    </mxGeometry>
                </mxCell>
                <mxCell id="31" value="Events (/events)" style="swimlane;whiteSpace=wrap;html=1;" parent="1" vertex="1">
                    <mxGeometry x="690" y="90" width="120" height="370" as="geometry"/>
                </mxCell>
                <mxCell id="32" value="errors.py" style="rounded=1;whiteSpace=wrap;html=1;" parent="31" vertex="1">
                    <mxGeometry y="30" width="120" height="60" as="geometry"/>
                </mxCell>
            </root>
        </mxGraphModel>
    </diagram>
</mxfile>